<svg width="283" height="50" viewBox="0 0 283 50" fill="none" xmlns="http://www.w3.org/2000/svg">
<path d="M204.083 34.2611L204.101 31.2202C203.576 32.1146 202.61 32.8897 201.203 33.5456C199.796 34.2015 198.12 34.5294 196.17 34.5294C193.881 34.5294 192.009 34.0047 190.548 32.9493C189.087 31.8999 188.359 30.3556 188.359 28.3343C188.359 26.4918 189.033 25.1145 190.375 24.1902C191.716 23.272 193.845 22.6638 196.767 22.3776L203.123 21.7456C203.069 20.1655 202.664 19.0028 201.9 18.2515C201.137 17.5002 199.796 17.1245 197.876 17.1245C196.087 17.1245 194.847 17.4584 194.149 18.1322C193.451 18.806 193.106 19.8077 193.106 21.1493L189.003 21.191C189.003 18.8477 189.647 17.0291 190.935 15.7233C192.223 14.4235 194.525 13.7676 197.84 13.7676C199.444 13.7676 200.827 13.9107 201.984 14.2028C203.141 14.495 204.053 14.8766 204.727 15.3477C205.401 15.8187 205.931 16.4567 206.325 17.2617C206.718 18.0666 206.975 18.8835 207.094 19.7302C207.213 20.5709 207.273 21.5846 207.273 22.7711V34.2552H204.083V34.2611ZM203.117 24.9475L197.393 25.5795C195.658 25.7644 194.441 26.0685 193.744 26.4859C193.046 26.9092 192.7 27.5114 192.7 28.2985C192.7 29.2167 193.088 29.9382 193.863 30.451C194.638 30.9638 195.765 31.2202 197.238 31.2202C199.08 31.2202 200.517 30.7193 201.561 29.7236C202.598 28.7218 203.117 27.3445 203.117 25.5795V24.9475Z" fill="#00CFFF"/>
<path d="M177.263 34.2553C173.865 34.2553 171.569 33.3311 170.382 31.4886V41.8934H166.232V13.7259H169.393V16.6119C169.893 15.7652 170.77 15.0318 172.022 14.3997C173.274 13.7677 174.997 13.4517 177.186 13.4517C178.796 13.4517 180.173 13.7259 181.318 14.2805C182.463 14.835 183.357 15.6101 183.989 16.6119C184.621 17.6136 185.08 18.7107 185.372 19.8973C185.665 21.0838 185.808 22.4135 185.808 23.8922C185.808 30.8029 182.958 34.2553 177.263 34.2553ZM180.406 18.6928C179.63 17.5182 178.17 16.9338 176.035 16.9338C173.847 16.9338 172.35 17.5122 171.545 18.6749C170.74 19.8376 170.341 21.5728 170.341 23.8982C170.341 26.164 170.716 27.8753 171.468 29.0201C172.219 30.1649 173.704 30.7433 175.916 30.7433C178.104 30.7433 179.595 30.1709 180.388 29.0201C181.181 27.8753 181.574 26.164 181.574 23.8982C181.574 21.5966 181.187 19.8615 180.406 18.6928Z" fill="#00CFFF"/>
<path d="M252.648 27.7859C252.332 28.9606 251.802 30.0517 251.068 31.0713C250.329 32.085 249.279 32.872 247.926 33.4266C246.566 33.9811 244.939 34.2554 243.042 34.2554C236.37 34.2554 233.037 30.7911 233.037 23.8506C233.037 22.4255 233.198 21.1257 233.514 19.957C233.83 18.7824 234.343 17.6912 235.058 16.6716C235.768 15.6579 236.811 14.8649 238.183 14.2985C239.554 13.732 241.188 13.4458 243.09 13.4458C244.986 13.4458 246.614 13.726 247.974 14.2985C249.333 14.8649 250.37 15.6579 251.098 16.6716C251.825 17.6852 252.344 18.7824 252.66 19.957C252.976 21.1316 253.137 22.4315 253.137 23.8506C253.125 25.3055 252.964 26.6113 252.648 27.7859ZM247.586 18.7525C246.769 17.5123 245.266 16.8922 243.078 16.8922C240.914 16.8922 239.417 17.5123 238.588 18.7525C237.76 19.9928 237.342 21.6921 237.342 23.8565C237.342 26.0448 237.754 27.7501 238.57 28.9784C239.387 30.2067 240.878 30.8149 243.042 30.8149C245.231 30.8149 246.739 30.2067 247.574 28.9963C248.403 27.7859 248.82 26.0687 248.82 23.8565C248.814 21.6921 248.403 19.9868 247.586 18.7525Z" fill="#00CFFF"/>
<path d="M227.283 13.7259L227.295 16.6178C226.794 15.7711 225.918 15.0377 224.665 14.3997C223.413 13.7677 221.69 13.4517 219.502 13.4517C217.898 13.4517 216.515 13.7259 215.37 14.2805C214.225 14.835 213.331 15.6101 212.698 16.6119C212.066 17.6136 211.601 18.7107 211.315 19.8913C211.029 21.0779 210.88 22.4075 210.88 23.8863C210.88 30.791 213.73 34.2493 219.418 34.2493C222.823 34.2493 225.113 33.3251 226.299 31.4826V33.3012C226.299 33.3012 226.484 35.1795 225.154 36.6224C224.159 37.7076 222.817 38.4351 220.623 38.447C217.051 38.4649 215.924 37.0577 215.465 36.0083H211.005C211.983 40.5399 215.143 41.8874 220.623 41.8874C222.519 41.8874 224.153 41.6131 225.506 41.0586C226.86 40.5041 227.826 39.6514 228.649 38.7093C230.443 36.6582 230.449 33.5696 230.449 33.5696V13.7259H227.283ZM225.22 29.0141C224.469 30.1649 222.984 30.7373 220.772 30.7373C218.584 30.7373 217.093 30.1649 216.306 29.0141C215.513 27.8693 215.119 26.158 215.119 23.8922C215.119 21.5966 215.507 19.8615 216.288 18.6928C217.069 17.5182 218.524 16.9338 220.659 16.9338C222.847 16.9338 224.343 17.5122 225.148 18.6749C225.953 19.8376 226.353 21.5728 226.353 23.8982C226.347 26.158 225.971 27.8693 225.22 29.0141Z" fill="#00CFFF"/>
<path d="M50.0026 32.3654C48.506 33.8143 46.2521 34.5358 43.2529 34.5358C36.5449 34.5358 33.188 31.0775 33.188 24.1549C33.188 22.7059 33.343 21.4001 33.659 20.2255C33.9751 19.0568 34.4938 17.9716 35.2153 16.9699C35.9368 15.9682 36.9802 15.1871 38.3337 14.6206C39.6873 14.0542 41.2972 13.7739 43.1694 13.7739C46.1686 13.7739 48.4285 14.5133 49.9549 15.9861C51.4813 17.4588 52.2445 19.498 52.2445 22.1037H47.9455C47.7905 20.47 47.3313 19.2476 46.586 18.4367C45.8347 17.6198 44.6601 17.2144 43.0561 17.2144C39.3474 17.2144 37.493 19.5159 37.493 24.1191C37.493 26.2477 37.9164 27.9113 38.7571 29.1098C39.5978 30.3083 41.0587 30.9046 43.1396 30.9046C44.7436 30.9046 45.9063 30.5229 46.6337 29.7597C47.3552 28.9965 47.7964 27.8517 47.9574 26.3253H52.2565C52.2505 28.9071 51.4992 30.9165 50.0026 32.3654Z" fill="#081450"/>
<path d="M74.1157 28.0836C73.7997 29.2523 73.275 30.3435 72.5356 31.3571C71.7963 32.3708 70.7528 33.1519 69.3993 33.7064C68.0458 34.2609 66.418 34.5352 64.5278 34.5352C57.8735 34.5352 54.5464 31.0769 54.5464 24.1543C54.5464 22.7352 54.7014 21.4353 55.0174 20.2666C55.3334 19.098 55.8462 18.0068 56.5558 16.9932C57.2653 15.9795 58.3028 15.1924 59.6742 14.626C61.0397 14.0595 62.6734 13.7793 64.5696 13.7793C66.4657 13.7793 68.0875 14.0595 69.441 14.626C70.7945 15.1924 71.838 15.9795 72.5595 16.9932C73.281 18.0068 73.7997 19.098 74.1157 20.2666C74.4317 21.4353 74.5868 22.7352 74.5868 24.1543C74.5868 25.6032 74.4317 26.915 74.1157 28.0836ZM69.0654 19.0681C68.2485 17.8339 66.7519 17.2138 64.5696 17.2138C62.4111 17.2138 60.9204 17.8339 60.0916 19.0681C59.2628 20.3024 58.8514 22.0018 58.8514 24.1602C58.8514 26.3426 59.2569 28.0479 60.0737 29.2702C60.8906 30.4925 62.3753 31.1067 64.5338 31.1067C66.7161 31.1067 68.2247 30.5045 69.0535 29.2941C69.8823 28.0836 70.2937 26.3724 70.2937 24.1662C70.2877 22.0018 69.8823 20.3024 69.0654 19.0681Z" fill="#081450"/>
<path d="M101.579 34.2609V22.1449C101.579 20.5409 101.329 19.3365 100.828 18.5315C100.327 17.7266 99.3312 17.3271 97.8286 17.3271C96.3558 17.3271 95.3481 17.7266 94.8115 18.5315C94.2748 19.3365 94.0006 20.535 94.0006 22.1449V34.2609H89.7373V22.1449C89.7373 20.5409 89.4869 19.3365 88.986 18.5315C88.4851 17.7266 87.4894 17.3271 85.9868 17.3271C84.514 17.3271 83.5004 17.7325 82.9459 18.5494C82.3913 19.3663 82.117 20.5648 82.117 22.1389V34.255H77.8955V14.0536H81.1273L81.1332 16.6592C81.5029 15.8722 82.2005 15.1924 83.2261 14.626C84.2517 14.0595 85.6231 13.7793 87.3284 13.7793C90.1189 13.7793 91.9733 14.8168 92.8915 16.8978C93.2314 16.057 93.929 15.3236 94.9844 14.7095C96.0338 14.0894 97.4291 13.7793 99.1702 13.7793C100.512 13.7793 101.639 13.994 102.545 14.4292C103.451 14.8645 104.137 15.4965 104.596 16.3253C105.055 17.1541 105.377 18.0485 105.562 19.0085C105.747 19.9685 105.836 21.0954 105.836 22.3834V34.2609H101.579Z" fill="#081450"/>
<path d="M120.642 34.5358C117.25 34.5358 114.96 33.6175 113.773 31.7751V42.156H109.629V14.0542H112.79V16.9341C113.29 16.0934 114.167 15.354 115.413 14.722C116.665 14.0899 118.377 13.7739 120.565 13.7739C122.169 13.7739 123.546 14.0482 124.691 14.6027C125.836 15.1573 126.724 15.9324 127.356 16.9282C127.988 17.9299 128.447 19.021 128.74 20.2016C129.032 21.3882 129.175 22.7119 129.175 24.1847C129.169 31.0894 126.325 34.5358 120.642 34.5358ZM123.779 19.0091C123.004 17.8404 121.549 17.2501 119.42 17.2501C117.238 17.2501 115.741 17.8285 114.942 18.9853C114.137 20.142 113.738 21.8771 113.738 24.1966C113.738 26.4564 114.113 28.1617 114.865 29.3066C115.616 30.4514 117.095 31.0238 119.307 31.0238C121.489 31.0238 122.974 30.4514 123.767 29.3066C124.554 28.1617 124.953 26.4564 124.953 24.1966C124.947 21.907 124.56 20.1778 123.779 19.0091Z" fill="#081450"/>
<path d="M142.346 17.4886C142.084 17.4648 141.899 17.4469 141.791 17.4469C139.818 17.4469 138.482 17.918 137.785 18.866C137.087 19.8141 136.741 21.2093 136.741 23.0518V34.2615H132.52V14.0542H135.739L135.757 16.8566C136.151 16.0397 136.89 15.3242 137.969 14.7041C139.049 14.084 140.48 13.7739 142.268 13.7739H142.942V17.5244C142.811 17.5304 142.614 17.5125 142.346 17.4886Z" fill="#081450"/>
<path d="M159.262 34.2611L159.279 31.2202C158.755 32.1146 157.789 32.8897 156.382 33.5456C154.974 34.2015 153.299 34.5294 151.349 34.5294C149.059 34.5294 147.187 34.0047 145.726 32.9493C144.266 31.8999 143.538 30.3556 143.538 28.3343C143.538 26.4918 144.212 25.1145 145.553 24.1902C146.895 23.272 149.024 22.6638 151.945 22.3776L158.302 21.7456C158.248 20.1655 157.842 19.0028 157.079 18.2515C156.316 17.5002 154.974 17.1245 153.054 17.1245C151.266 17.1245 150.025 17.4584 149.328 18.1322C148.63 18.806 148.284 19.8077 148.284 21.1493L144.182 21.191C144.182 18.8477 144.826 17.0291 146.114 15.7233C147.402 14.4235 149.703 13.7676 153.019 13.7676C154.623 13.7676 156.006 13.9107 157.163 14.2028C158.319 14.495 159.232 14.8766 159.905 15.3477C160.579 15.8187 161.11 16.4567 161.503 17.2617C161.897 18.0666 162.153 18.8835 162.273 19.7302C162.392 20.5709 162.452 21.5846 162.452 22.7711V34.2552H159.262V34.2611ZM158.29 24.9475L152.566 25.5795C150.83 25.7644 149.614 26.0685 148.916 26.4859C148.219 26.9092 147.873 27.5114 147.873 28.2985C147.873 29.2167 148.26 29.9382 149.036 30.451C149.811 30.9638 150.938 31.2202 152.41 31.2202C154.253 31.2202 155.69 30.7193 156.733 29.7236C157.771 28.7218 158.29 27.3445 158.29 25.5795V24.9475Z" fill="#081450"/>
<path d="M22.503 0C20.8275 0 19.3845 0.971908 18.6988 2.38505C18.6988 2.39101 18.6929 2.39101 18.6929 2.39698C18.52 2.66529 18.3351 2.98728 18.1443 3.35696C17.4884 4.62104 14.7516 11.001 14.7516 11.001C14.7516 11.001 14.3938 11.1799 14.2984 10.9414C14.2984 10.9414 12.1996 5.47369 11.2694 4.5793C10.7089 3.75645 9.76086 3.21386 8.69355 3.21386C6.97631 3.21386 5.58105 4.60911 5.58105 6.32635C5.58105 7.28633 6.01633 8.14495 6.70203 8.71736C6.70203 8.71736 6.70203 8.71736 6.70799 8.72332C6.71395 8.72929 6.71395 8.72929 6.71992 8.72929C6.79743 8.77102 7.17308 8.98568 7.72164 9.28381C9.13478 10.059 11.6868 11.4005 13.1357 11.8418C15.2226 12.4738 17.3692 11.2276 17.3692 11.2276L24.3335 8.04358C24.423 7.99588 24.5124 7.95414 24.6018 7.90644C25.8719 7.179 26.7305 5.80164 26.7305 4.23347C26.7305 1.89612 24.8403 0 22.503 0ZM8.68162 8.24631C7.63816 8.24631 6.78551 7.39962 6.78551 6.3502C6.78551 5.30674 7.63816 4.45408 8.68162 4.45408C9.72508 4.45408 10.5777 5.30674 10.5777 6.3502C10.5777 7.40558 9.72508 8.24631 8.68162 8.24631ZM22.5567 6.92857C21.0958 6.92857 19.9033 5.74201 19.9033 4.2752C19.9033 2.81436 21.0898 1.62183 22.5567 1.62183C24.0235 1.62183 25.21 2.8084 25.21 4.2752C25.21 5.74201 24.0175 6.92857 22.5567 6.92857Z" fill="#00CFFF"/>
<path d="M7.72145 9.27816C7.35176 9.15294 7.0119 8.9681 6.71973 8.72363C6.79724 8.76537 7.17289 8.98003 7.72145 9.27816Z" fill="#00CFFF"/>
<path d="M24.6132 7.91232L24.333 8.03753C24.4224 7.98983 24.5119 7.94809 24.6013 7.90039L24.6132 7.91232Z" fill="#00CFFF"/>
<path d="M0.643964 12.3667H12.0803V18.1922H0.643964C0.286206 18.1922 0 17.906 0 17.5482V13.0107C0 12.6589 0.286206 12.3667 0.643964 12.3667Z" fill="#00CFFF"/>
<path d="M28.5729 13.0107V17.5482C28.5729 17.9 28.2867 18.1922 27.9289 18.1922H16.5522V12.3667H27.9289C28.2807 12.3667 28.5729 12.6589 28.5729 13.0107Z" fill="#00CFFF"/>
<path d="M2.90959 19.2354H12.0741V35.9128H2.90959C2.55779 35.9128 2.26562 35.6266 2.26562 35.2689V19.8793C2.27159 19.5216 2.55779 19.2354 2.90959 19.2354Z" fill="#00CFFF"/>
<path d="M26.3667 19.8793V35.2689C26.3667 35.6207 26.0805 35.9128 25.7228 35.9128H16.5522V19.2354H25.7228C26.0746 19.2354 26.3667 19.5216 26.3667 19.8793Z" fill="#00CFFF"/>
<path d="M274.048 28.4058C274.048 30.0693 273.309 31.5063 271.83 32.7167C270.548 33.7662 268.699 34.3624 266.285 34.4996V36.1572H263.518V34.4817C260.966 34.2968 259.04 33.6648 257.734 32.5796C256.166 31.2738 255.379 29.318 255.379 26.7064H259.529C259.529 29.6818 261.377 31.1724 265.068 31.1724C266.702 31.1724 267.906 30.922 268.67 30.4211C269.433 29.9203 269.844 29.33 269.892 28.6443C269.922 27.8512 269.451 27.2311 268.491 26.7839C267.531 26.3367 266.356 25.9909 264.973 25.7583C263.583 25.5198 262.194 25.2336 260.799 24.9057C259.398 24.5777 258.211 24.0053 257.239 23.1825C256.261 22.3656 255.772 21.2864 255.772 19.9388C255.772 18.0427 256.488 16.5342 257.913 15.4132C259.153 14.4353 261.026 13.8808 263.518 13.7556V12.0801H266.285V13.8033C271.114 14.2445 273.535 16.7369 273.535 21.2864H269.576C269.498 19.8613 269.075 18.794 268.312 18.0844C267.549 17.3689 266.285 17.0171 264.514 17.0171C262.934 17.0171 261.777 17.2616 261.055 17.7446C260.328 18.2335 259.97 18.8477 259.97 19.587C259.97 20.2966 260.447 20.8511 261.413 21.2446C262.373 21.6441 263.548 21.9661 264.931 22.2165C266.314 22.467 267.698 22.7711 269.081 23.1229C270.47 23.4806 271.639 24.1007 272.605 24.9832C273.565 25.8657 274.048 27.0105 274.048 28.4058Z" fill="#081450"/>
<path d="M279.368 39.7769L277.442 45.9125L276.058 45.5786C275.945 45.5547 275.832 45.5667 275.737 45.6144C275.54 45.7098 271.044 47.9338 269.851 48.7268C268.921 49.347 268.092 49.0309 268.027 49.0071C267.884 48.9594 254.116 44.4636 252.894 44.076C252.625 43.9866 252.446 43.8673 252.387 43.7361C252.327 43.599 252.399 43.444 252.405 43.432C252.405 43.432 252.625 42.9252 253.192 41.5717C253.299 41.3093 253.442 41.1543 253.621 41.0887C253.901 40.9933 254.259 41.1305 254.366 41.1901C254.396 41.208 254.426 41.2199 254.462 41.2318L260.854 43.1876C261.074 43.7481 261.438 44.4993 261.915 45.0479C262.321 45.507 262.804 45.6561 263.251 45.6561C263.734 45.6561 264.175 45.4832 264.425 45.3222C264.634 45.2089 269.523 42.5615 269.905 42.3468C270.132 42.2157 270.215 41.9235 270.084 41.6969C269.953 41.4703 269.661 41.3868 269.434 41.518C269.351 41.5657 269.04 41.7386 268.605 41.9712C267.073 42.8119 264.002 44.4695 263.942 44.4993C263.865 44.553 263.126 44.9823 262.631 44.4218C262.195 43.9269 261.861 43.1816 261.671 42.6807C261.653 42.645 261.641 42.6032 261.623 42.5674C261.486 42.3289 261.48 42.2335 261.48 42.2097C261.48 42.2037 261.48 42.2037 261.48 42.2037C261.486 42.1978 261.492 42.1858 261.498 42.1799C261.569 42.1024 261.796 41.9652 261.975 41.8639L270.233 36.9805L279.368 39.7769Z" fill="#1A1B4E"/>
<path d="M282.939 40.6532L280.882 47.2061C280.775 47.5519 280.536 47.8322 280.214 47.9991C279.892 48.1661 279.522 48.2019 279.177 48.0945C278.837 47.9872 278.556 47.7487 278.384 47.4267C278.217 47.1047 278.181 46.7351 278.294 46.3952L280.351 39.8423C280.572 39.1267 281.335 38.7332 282.051 38.9538C282.396 39.0612 282.677 39.2997 282.844 39.6216C283.011 39.9436 283.046 40.3133 282.939 40.6532Z" fill="#1A1B4E"/>
</svg>
